<svg xmlns="http://www.w3.org/2000/svg" viewBox="0 0 320 70">
  <defs>
    <linearGradient id="gradE" x1="0%" y1="0%" x2="100%" y2="100%">
      <stop offset="0%" style="stop-color:#2563EB"/>
      <stop offset="100%" style="stop-color:#0EA5E9"/>
    </linearGradient>
  </defs>

  <!-- INFINITY VERSION 2: Filled/solid infinity replacing O -->
  <text x="5" y="48" font-family="Inter, system-ui, sans-serif" font-size="38" font-weight="700" fill="#1E293B">
    Str
  </text>

  <!-- Solid filled infinity -->
  <g transform="translate(68, 20)">
    <path d="M14 4 C6 4 0 10 0 16 C0 22 6 28 14 28 C18 28 22 24 26 16 C30 24 34 28 38 28 C46 28 52 22 52 16 C52 10 46 4 38 4 C34 4 30 8 26 16 C22 8 18 4 14 4 Z"
          fill="url(#gradE)"/>
  </g>

  <text x="124" y="48" font-family="Inter, system-ui, sans-serif" font-size="38" font-weight="700" fill="#1E293B">
    mation
  </text>
</svg>
