<?xml version="1.0" encoding="UTF-8"?><svg xmlns="http://www.w3.org/2000/svg" viewBox="0 0 500 660" width="500" height="660"><defs><marker id="a1" viewBox="0 0 12 12" refX="10" refY="6" markerWidth="8" markerHeight="8" orient="auto"><path d="M2 2L10 6L2 10" fill="none" stroke="#00E5FF" stroke-width="2" stroke-linecap="round" stroke-linejoin="round"/></marker><marker id="a2" viewBox="0 0 12 12" refX="10" refY="6" markerWidth="8" markerHeight="8" orient="auto"><path d="M2 2L10 6L2 10" fill="none" stroke="#00E5FF" stroke-width="2" stroke-linecap="round" stroke-linejoin="round"/></marker></defs><rect width="500" height="660" fill="#080808"/><path d="M333,108 C240,100 125,162 124,252 C123,312 194,328 232,332" fill="none" stroke="#00E5FF" stroke-width="3.5" stroke-linecap="round" marker-end="url(#a1)"/><path d="M268,344 C366,362 394,444 368,506 C346,558 262,572 168,568" fill="none" stroke="#00E5FF" stroke-width="3.5" stroke-linecap="round" marker-end="url(#a2)"/><circle cx="355" cy="100" r="58" fill="none" stroke="#00E5FF" stroke-width="1" opacity=".07"/><circle cx="355" cy="100" r="40" fill="none" stroke="#00E5FF" stroke-width="1.5" opacity=".18"/><circle cx="355" cy="100" r="24" fill="none" stroke="#00E5FF" stroke-width="2.8"/><circle cx="355" cy="100" r="10" fill="#00E5FF"/><circle cx="250" cy="338" r="20" fill="none" stroke="#00E5FF" stroke-width="2.8"/><circle cx="250" cy="338" r="9" fill="#00E5FF"/><circle cx="145" cy="572" r="58" fill="none" stroke="#00E5FF" stroke-width="1" opacity=".07"/><circle cx="145" cy="572" r="40" fill="none" stroke="#00E5FF" stroke-width="1.5" opacity=".18"/><circle cx="145" cy="572" r="24" fill="none" stroke="#00E5FF" stroke-width="2.8"/><circle cx="145" cy="572" r="10" fill="#00E5FF"/><text x="250" y="636" text-anchor="middle" font-family="'Courier New',monospace" font-size="34" font-weight="700" fill="white" letter-spacing="10">STROMATION</text></svg>