<?xml version="1.0" encoding="UTF-8"?><svg xmlns="http://www.w3.org/2000/svg" viewBox="0 0 500 600" width="500" height="600"><defs><marker id="d1" viewBox="0 0 12 12" refX="10" refY="6" markerWidth="8" markerHeight="8" orient="auto"><path d="M2 2L10 6L2 10" fill="none" stroke="#00E5FF" stroke-width="2" stroke-linecap="round" stroke-linejoin="round"/></marker><marker id="d2" viewBox="0 0 12 12" refX="10" refY="6" markerWidth="8" markerHeight="8" orient="auto"><path d="M2 2L10 6L2 10" fill="none" stroke="#00E5FF" stroke-width="2" stroke-linecap="round" stroke-linejoin="round"/></marker></defs><rect width="500" height="600" fill="#080808"/><path d="M 333,108 C 240,100 125,162 124,252 C 123,312 194,328 232,332" fill="none" stroke="#00E5FF" stroke-width="3.5" stroke-linecap="round" marker-end="url(#d1)"/><path d="M 268,344 C 366,362 394,444 368,506 C 346,558 262,572 168,568" fill="none" stroke="#00E5FF" stroke-width="3.5" stroke-linecap="round" marker-end="url(#d2)"/><circle cx="355" cy="100" r="58" fill="none" stroke="#00E5FF" stroke-width="1" opacity="0.07"/><circle cx="355" cy="100" r="40" fill="none" stroke="#00E5FF" stroke-width="1.5" opacity="0.18"/><circle cx="355" cy="100" r="24" fill="none" stroke="#00E5FF" stroke-width="2.8"/><circle cx="355" cy="100" r="10" fill="#00E5FF"/><circle cx="250" cy="338" r="20" fill="none" stroke="#00E5FF" stroke-width="2.8"/><circle cx="250" cy="338" r="9" fill="#00E5FF"/><circle cx="145" cy="572" r="58" fill="none" stroke="#00E5FF" stroke-width="1" opacity="0.07"/><circle cx="145" cy="572" r="40" fill="none" stroke="#00E5FF" stroke-width="1.5" opacity="0.18"/><circle cx="145" cy="572" r="24" fill="none" stroke="#00E5FF" stroke-width="2.8"/><circle cx="145" cy="572" r="10" fill="#00E5FF"/></svg>