<svg xmlns="http://www.w3.org/2000/svg" width="1050" height="600" viewBox="0 0 1050 600">
  <defs>
    <linearGradient id="bg2" x1="0%" y1="0%" x2="100%" y2="100%">
      <stop offset="0%" stop-color="#0F172A"/>
      <stop offset="100%" stop-color="#1E293B"/>
    </linearGradient>
  </defs>

  <!-- Background -->
  <rect width="1050" height="600" rx="16" fill="url(#bg2)"/>

  <!-- Large centered logo -->
  <g transform="translate(375, 80) scale(0.55)">
    <path d="M333,108 C240,100 125,162 124,252 C123,312 194,328 232,332" fill="none" stroke="#00E5FF" stroke-width="14" stroke-linecap="round"/>
    <path d="M268,344 C366,362 394,444 368,506 C346,558 262,572 168,568" fill="none" stroke="#00E5FF" stroke-width="14" stroke-linecap="round"/>
    <circle cx="355" cy="100" r="58" fill="none" stroke="#00E5FF" stroke-width="1" opacity="0.07"/>
    <circle cx="355" cy="100" r="40" fill="none" stroke="#00E5FF" stroke-width="1.5" opacity="0.18"/>
    <circle cx="355" cy="100" r="24" fill="none" stroke="#00E5FF" stroke-width="2.8"/>
    <circle cx="355" cy="100" r="10" fill="#00E5FF"/>
    <circle cx="250" cy="338" r="20" fill="none" stroke="#00E5FF" stroke-width="2.8"/>
    <circle cx="250" cy="338" r="9" fill="#00E5FF"/>
    <circle cx="145" cy="572" r="58" fill="none" stroke="#00E5FF" stroke-width="1" opacity="0.07"/>
    <circle cx="145" cy="572" r="40" fill="none" stroke="#00E5FF" stroke-width="1.5" opacity="0.18"/>
    <circle cx="145" cy="572" r="24" fill="none" stroke="#00E5FF" stroke-width="2.8"/>
    <circle cx="145" cy="572" r="10" fill="#00E5FF"/>
  </g>

  <!-- Tagline below logo -->
  <text x="525" y="470" text-anchor="middle" font-family="Inter, system-ui, sans-serif" font-size="18" font-weight="500" fill="#94A3B8" letter-spacing="2">WE REPLACE YOUR REPETITIVE WORKFLOWS</text>

  <!-- Website -->
  <text x="525" y="520" text-anchor="middle" font-family="Inter, system-ui, sans-serif" font-size="15" font-weight="400" fill="#64748B" letter-spacing="1">stromation.com/audit</text>

  <!-- Free audit CTA -->
  <rect x="400" y="540" width="250" height="32" rx="16" fill="none" stroke="#00E5FF" stroke-width="1" opacity="0.3"/>
  <text x="525" y="562" text-anchor="middle" font-family="Inter, system-ui, sans-serif" font-size="12" font-weight="600" fill="#00E5FF" letter-spacing="2">FREE AUTOMATION AUDIT</text>

  <!-- Accent line at bottom -->
  <rect x="0" y="596" width="1050" height="4" rx="2" fill="#00E5FF" opacity="0.8"/>
</svg>