<?xml version="1.0" encoding="UTF-8"?><svg xmlns="http://www.w3.org/2000/svg" viewBox="60 30 380 610" width="120" height="120"><defs><marker id="e1" viewBox="0 0 12 12" refX="10" refY="6" markerWidth="8" markerHeight="8" orient="auto"><path d="M2 2L10 6L2 10" fill="none" stroke="#00E5FF" stroke-width="2" stroke-linecap="round" stroke-linejoin="round"/></marker><marker id="e2" viewBox="0 0 12 12" refX="10" refY="6" markerWidth="8" markerHeight="8" orient="auto"><path d="M2 2L10 6L2 10" fill="none" stroke="#00E5FF" stroke-width="2" stroke-linecap="round" stroke-linejoin="round"/></marker></defs><rect x="60" y="30" width="380" height="610" rx="40" fill="#0d0d0d"/><path d="M333,108 C240,100 125,162 124,252 C123,312 194,328 232,332" fill="none" stroke="#00E5FF" stroke-width="4" stroke-linecap="round" marker-end="url(#e1)"/><path d="M268,344 C366,362 394,444 368,506 C346,558 262,572 168,568" fill="none" stroke="#00E5FF" stroke-width="4" stroke-linecap="round" marker-end="url(#e2)"/><circle cx="355" cy="100" r="50" fill="none" stroke="#00E5FF" stroke-width="1" opacity="0.1"/><circle cx="355" cy="100" r="34" fill="none" stroke="#00E5FF" stroke-width="1.5" opacity="0.2"/><circle cx="355" cy="100" r="22" fill="none" stroke="#00E5FF" stroke-width="3"/><circle cx="355" cy="100" r="9" fill="#00E5FF"/><circle cx="250" cy="338" r="18" fill="none" stroke="#00E5FF" stroke-width="3"/><circle cx="250" cy="338" r="8" fill="#00E5FF"/><circle cx="145" cy="572" r="50" fill="none" stroke="#00E5FF" stroke-width="1" opacity="0.1"/><circle cx="145" cy="572" r="34" fill="none" stroke="#00E5FF" stroke-width="1.5" opacity="0.2"/><circle cx="145" cy="572" r="22" fill="none" stroke="#00E5FF" stroke-width="3"/><circle cx="145" cy="572" r="9" fill="#00E5FF"/></svg>
